<!--?xml version="1.0" encoding="utf-8"?-->
<!-- Generator: Adobe Illustrator 18.1.1, SVG Export Plug-In . SVG Version: 6.00 Build 0)  -->

<svg version="1.1" id="_x32_" xmlns="http://www.w3.org/2000/svg" xmlns:xlink="http://www.w3.org/1999/xlink" x="0px" y="0px" viewBox="0 0 512 512" style="width: 48px; height: 48px; opacity: 1;" xml:space="preserve">
<style type="text/css">
	.st0{fill:#4B4B4B;}
</style>
<g>
	<path class="st0" d="M140.91,134.352c-1.398-5.738-2.226-10.87-2.547-15.378c-0.322-4.546-0.14-8.447,0.476-11.668
		c0.864-4.648-2.204-9.127-6.859-9.998c-4.648-0.872-9.128,2.203-9.984,6.843c-0.923,4.985-1.142,10.321-0.732,16.038
		c0.396,5.68,1.42,11.711,2.987,18.211c2.942,12.114,8.901,22.807,16.586,32.104c3.015,3.631,8.417,4.164,12.056,1.149
		c3.652-3.023,4.157-8.425,1.163-12.077C147.696,151.875,143.135,143.524,140.91,134.352z" style="fill: rgb(75, 75, 75);"></path>
	<path class="st0" d="M143.435,79.565c6.076,0,10.994-4.919,10.994-10.994c0-6.083-4.918-11.002-10.994-11.002
		c-6.082,0-11.001,4.918-11.001,11.002C132.434,74.646,137.353,79.565,143.435,79.565z" style="fill: rgb(75, 75, 75);"></path>
	<rect x="245.2" y="375.153" class="st0" width="21.608" height="136.847" style="fill: rgb(75, 75, 75);"></rect>
	<path class="st0" d="M410.638,30.377C392.134,9.838,366.633-0.058,340.582,0h-0.118l-1.962,0.022h-0.08
		c-20.246,0.329-37.037,6.704-50.242,15.876c-13.235,9.172-23.006,20.913-30.655,32.133l-0.044,0.081
		c-0.498,0.747-1.069,1.252-1.457,1.501c-0.373-0.212-0.944-0.63-1.508-1.501l-0.051-0.081
		c-7.641-11.214-17.413-22.961-30.647-32.133c-13.205-9.171-29.996-15.547-50.242-15.876h-0.08L171.528,0h-0.11
		c-26.057-0.059-51.559,9.838-70.056,30.369c-18.548,20.517-29.718,50.982-29.689,90.668c0,40.916,17.626,75.546,39.834,102.957
		c22.244,27.464,49.26,48.192,69.734,62.144c15.716,10.745,31.709,19.646,43.332,25.421c-1.639,3.47-3.221,6.976-4.67,10.226
		c-1.457,3.286-2.789,6.316-3.865,8.688c-0.534,1.192-1.01,2.21-1.391,2.986c-0.366,0.762-0.673,1.318-0.673,1.318
		c-2.233,3.74-3.228,7.781-3.236,11.712c0.03,4.158,1.062,8.344,3.814,12.157c1.391,1.889,3.265,3.652,5.622,4.919
		c2.342,1.281,5.131,1.983,7.861,1.976h55.936c2.73,0.007,5.52-0.695,7.862-1.976c3.55-1.918,5.943-4.875,7.371-7.839
		c1.441-2.994,2.057-6.105,2.064-9.237c-0.007-3.93-1.003-7.971-3.236-11.719c0,0.007-0.307-0.549-0.673-1.31
		c-1.347-2.766-3.718-8.249-6.375-14.193c-1.135-2.503-2.335-5.116-3.565-7.708c11.624-5.775,27.617-14.668,43.339-25.421
		c20.473-13.951,47.49-34.68,69.734-62.144c22.208-27.412,39.834-62.041,39.834-102.957
		C440.356,81.351,429.178,50.886,410.638,30.377z M383.702,210.395c-20.173,24.96-45.586,44.606-65.115,57.891l-0.022,0.022
		c-19.638,13.476-40.983,24.396-50.03,28.261c-2.796,1.201-4.963,3.536-5.959,6.42c-0.988,2.877-0.717,6.046,0.754,8.724
		c2.833,5.131,6.171,12.414,9.025,18.856c1.442,3.235,2.774,6.265,3.93,8.827c0.586,1.288,1.127,2.452,1.632,3.499
		c0.183,0.366,0.373,0.688,0.55,1.04H233.54c0.176-0.344,0.366-0.674,0.55-1.04c1.749-3.623,4.04-8.967,6.654-14.778
		c2.584-5.768,5.453-11.909,7.934-16.418c1.47-2.672,1.734-5.834,0.746-8.718c-0.996-2.884-3.162-5.211-5.959-6.412
		c-9.039-3.857-30.384-14.785-50.03-28.261l-0.022-0.022c-19.529-13.285-44.942-32.931-65.115-57.891
		c-20.217-25.018-35.017-54.853-35.017-89.357c0.029-35.786,9.896-60.431,24.111-76.176c14.244-15.708,33.209-23.189,54.004-23.255
		l1.866,0.022h-0.08c16.044,0.329,28.136,5.029,38.34,12.04c10.174,7.02,18.336,16.586,25.084,26.519l-0.051-0.08
		c2.1,3.147,4.772,5.826,7.978,7.846c3.199,2.006,7.013,3.374,11.192,3.477h0.549c4.194-0.102,8-1.471,11.192-3.477
		c3.206-2.02,5.878-4.699,7.978-7.846l-0.051,0.08c6.749-9.933,14.903-19.5,25.077-26.519c10.211-7.012,22.303-11.711,38.347-12.04
		h-0.088l1.874-0.022c20.788,0.066,39.753,7.547,53.997,23.255c14.215,15.745,24.089,40.397,24.118,76.176
		C418.719,155.542,403.919,185.377,383.702,210.395z" style="fill: rgb(75, 75, 75);"></path>
</g>
</svg>
