<!--?xml version="1.0" encoding="utf-8"?-->
<!-- Generator: Adobe Illustrator 18.1.1, SVG Export Plug-In . SVG Version: 6.00 Build 0)  -->

<svg version="1.1" id="_x32_" xmlns="http://www.w3.org/2000/svg" xmlns:xlink="http://www.w3.org/1999/xlink" x="0px" y="0px" viewBox="0 0 512 512" style="width: 48px; height: 48px; opacity: 1;" xml:space="preserve">
<style type="text/css">
	.st0{fill:#4B4B4B;}
</style>
<g>
	<path class="st0" d="M426.983,407.646c-9.608-18.558-24.687-30.631-39.469-38.86c-14.798-8.246-29.64-12.944-39.435-16.636
		c-7.781-2.887-15.976-6.63-21.547-10.558c-2.59-1.795-4.495-3.598-5.655-5.088c3.294,0,7.391,0,12.318,0
		c13.952,0,34.195,0,59.357,0h11.954l-2.659-11.658c-3.606-15.823-4.749-32.222-4.749-52.016
		c-0.008-29.657,2.582-66.722,2.59-119.204c0.094-53.278-21.055-92.383-49.662-117.308C321.409,11.344,285.945,0.042,256,0
		c-29.936,0.042-65.402,11.344-94.017,36.32c-28.607,24.924-49.756,64.022-49.671,117.29h0.009v0.017l0,0
		c0,52.49,2.59,89.572,2.582,119.229c0,19.785-1.135,36.176-4.741,51.999l-2.658,11.65h11.954c33.949,0,58.908,0,71.574,0
		c-1.964,2.48-5.969,5.647-10.829,8.373c-5.063,2.887-10.947,5.402-16.085,7.213c-13.343,4.75-35.296,11.32-54.379,26.093
		c-9.533,7.408-18.38,16.992-24.755,29.369c-6.384,12.377-10.194,27.438-10.185,45.353c0,3.709,0.161,7.544,0.499,11.506
		c0.254,2.912,1.355,5.198,2.558,7.01c2.319,3.386,5.172,5.672,8.636,8.018c6.044,4.004,14.18,7.772,24.543,11.489
		C142.012,501.968,192.909,511.984,256,512c51.254,0,94.524-6.646,125.52-15.028c15.518-4.207,27.93-8.813,37.04-13.495
		c4.571-2.362,8.322-4.707,11.421-7.408c1.54-1.363,2.946-2.819,4.173-4.648c1.203-1.812,2.303-4.098,2.565-7.01
		c0.322-3.954,0.483-7.772,0.483-11.472C437.219,435.034,433.383,419.982,426.983,407.646z M174.547,50.67
		C199.226,28.988,230.838,19.023,256,19.066c25.161-0.042,56.774,9.922,81.462,31.604c24.687,21.741,43.068,54.683,43.16,102.957
		c-0.009,51.864-2.582,88.471-2.59,119.204c0,16.035,0.77,30.528,3.022,44.608c-19.853,0-36.108,0-47.859,0
		c-5.8,0-10.439,0-13.969,0c0-3.929,0-8.314,0-13.106c10.616-11.836,26.126-30.537,31.375-60.626l-9.389-1.659h9.533V144.72H161.271
		v98.157l0.144,0.83c5.241,30.08,20.76,48.79,31.368,60.626c0,4.792,0,9.177,0,13.106c-10.676,0-32.188,0-61.837,0
		c2.26-14.071,3.031-28.548,3.031-44.583c-0.009-30.741-2.59-67.349-2.59-119.229v-0.017
		C131.479,105.344,149.859,72.402,174.547,50.67z M391.857,473.911c-28.658,9.796-76.772,19.04-135.857,19.023
		c-49.578,0-91.384-6.476-120.525-14.376c-14.553-3.928-25.966-8.254-33.297-12.038c-3.649-1.863-6.282-3.641-7.568-4.784
		l-0.373-0.364c-0.212-2.912-0.364-5.774-0.364-8.467c0.017-15.255,3.158-27.058,8.068-36.616
		c7.366-14.299,19.014-23.959,31.773-31.105c12.742-7.12,26.288-11.446,36.735-15.112c8.051-2.853,17.381-6.96,25.39-12.504
		c3.997-2.803,7.696-5.96,10.693-9.881c2.963-3.886,5.317-8.856,5.317-14.612c0-8.17,0-18.38,0-32.392v-3.657l-2.446-2.726
		c-10.414-11.606-24.112-26.609-29.064-53.286v-77.228h151.341v77.228c-4.962,26.678-18.651,41.68-29.073,53.286l-2.447,2.718v3.665
		c0,14.012,0,24.222,0,32.392c-0.017,5.554,2.159,10.515,5.02,14.376c4.36,5.833,10.236,9.998,16.56,13.63
		c6.333,3.59,13.199,6.519,19.659,8.932c13.952,5.173,33.5,11.353,49.12,23.468c7.806,6.045,14.596,13.428,19.532,22.936
		c4.91,9.524,8.068,21.276,8.077,36.522c0,2.675-0.153,5.512-0.364,8.408c-0.678,0.686-2.108,1.862-4.42,3.234
		C408.755,467.342,401.381,470.676,391.857,473.911z" style="fill: rgb(75, 75, 75);"></path>
</g>
</svg>
